<svg width="24" height="24" viewBox="0 0 24 24" fill="none" xmlns="http://www.w3.org/2000/svg">
<rect width="24" height="24" rx="2" fill="#0D6EFD"/>
<path fill-rule="evenodd" clip-rule="evenodd" d="M17.853 6.9488C18.0325 6.76076 18.2388 6.66675 18.472 6.66675C18.7052 6.66675 18.9116 6.76076 19.091 6.9488C19.2524 7.11803 19.3332 7.32957 19.3332 7.58341C19.3332 7.83726 19.2524 8.0488 19.091 8.21803L10.5063 17.2719C10.4883 17.2907 10.4704 17.3095 10.4524 17.3283C10.4345 17.3471 10.4166 17.3659 10.3986 17.3847C10.2371 17.5727 10.0353 17.6667 9.79311 17.6667C9.55091 17.6667 9.34907 17.5727 9.1876 17.3847L4.90871 12.9283C4.74724 12.7591 4.6665 12.5475 4.6665 12.2937C4.6665 12.0398 4.74724 11.8283 4.90871 11.6591C5.08812 11.471 5.29443 11.377 5.52767 11.377C5.7609 11.377 5.96722 11.471 6.14663 11.6591L9.77965 15.4667L17.853 6.9488Z" fill="white"/>
</svg>
