<svg width="41" height="40" viewBox="0 0 41 40" fill="none" xmlns="http://www.w3.org/2000/svg">
<path fill-rule="evenodd" clip-rule="evenodd" d="M33.2502 8.75067C33.2502 5.75913 30.825 3.33401 27.8335 3.33401L27.495 3.33742C24.5738 3.44765 21.9925 5.64419 20.3504 9.09956L20.3318 9.13734L20.1226 8.7065C18.4081 5.3492 15.7743 3.28258 12.8117 3.3342C9.84195 3.33401 7.41683 5.75913 7.41683 8.75067C7.41683 9.82441 7.72925 10.8252 8.26815 11.667H7.00016C5.38933 11.667 4.0835 12.9729 4.0835 14.5837V17.917C4.0835 19.5279 5.38933 20.8337 7.00016 20.8337H7.41683V31.2504L7.42519 31.5296C7.56949 33.9309 9.56261 35.8337 12.0002 35.8337H20.3304L20.3335 35.8337L20.3366 35.8337H28.6668L28.946 35.8253C31.3473 35.681 33.2502 33.6879 33.2502 31.2504V20.8337H33.6668C35.2777 20.8337 36.5835 19.5279 36.5835 17.917V14.5837C36.5835 12.9729 35.2777 11.667 33.6668 11.667H32.3988C32.9377 10.8252 33.2502 9.82441 33.2502 8.75067ZM27.8057 14.167C27.8149 14.1672 27.8242 14.1673 27.8335 14.1673C27.8528 14.1673 27.8721 14.1672 27.8914 14.167H33.6668C33.8969 14.167 34.0835 14.3536 34.0835 14.5837V17.917C34.0835 18.1472 33.8969 18.3337 33.6668 18.3337H32.0002H21.5835V14.167H27.8057ZM27.876 11.667C29.4672 11.6443 30.7502 10.3473 30.7502 8.75067C30.7502 7.13984 29.4443 5.83401 27.8117 5.83382C25.5247 5.79397 23.2634 8.00231 21.9992 11.667H27.876ZM18.6677 11.667C17.4033 8.00231 15.1398 5.79399 12.8335 5.83401C11.2227 5.83401 9.91683 7.13984 9.91683 8.75067C9.91683 10.281 11.0953 11.536 12.5943 11.6577L12.826 11.667H18.6677ZM12.7756 14.167C12.7949 14.1672 12.8142 14.1673 12.8335 14.1673C12.8428 14.1673 12.8521 14.1672 12.8613 14.167H19.0835V18.3337H8.66683H7.00016C6.77004 18.3337 6.5835 18.1472 6.5835 17.917V14.5837C6.5835 14.3536 6.77004 14.167 7.00016 14.167H12.7756ZM9.91683 31.2504V20.8337H19.0835V33.3337H12.0002L11.7872 33.3229C10.7366 33.2163 9.91683 32.3291 9.91683 31.2504ZM28.6668 33.3337H21.5835V20.8337H30.7502V31.2504L30.7394 31.4634C30.6327 32.5139 29.7455 33.3337 28.6668 33.3337Z" fill="#212121"/>
</svg>
